<?xml version="1.0" encoding="utf-8"?>
<!-- Generator: Adobe Illustrator 20.1.0, SVG Export Plug-In . SVG Version: 6.00 Build 0)  -->
<svg version="1.1" id="Layer_1" xmlns="http://www.w3.org/2000/svg" xmlns:xlink="http://www.w3.org/1999/xlink" x="0px" y="0px"
	 width="32px" height="32px" viewBox="0 0 32 32" style="enable-background:new 0 0 32 32;" xml:space="preserve">
<style type="text/css">
	.st0{fill:#F15859;}
</style>
<g>
	<path class="st0" d="M18.8,3.3C11.8,3.3,6.1,9,6.1,16s5.7,12.7,12.8,12.7S31.6,23,31.6,16S25.9,3.3,18.8,3.3z M18.8,26.8
		C12.8,26.8,8,22,8,16S12.8,5.2,18.8,5.2S29.7,10,29.7,16S24.8,26.8,18.8,26.8z"/>
	<polygon class="st0" points="17.9,18.3 20.3,17 13.7,17 13.7,14.9 20,14.9 17.9,13.7 17.9,11.4 26.1,16 17.9,20.6 	"/>
</g>
</svg>
